<svg width="175" height="37" viewBox="0 0 175 37" fill="none" xmlns="http://www.w3.org/2000/svg">
<path d="M15.8118 9.01665C18.193 9.01665 19.9934 9.69907 21.2131 11.0639C22.4327 12.3997 23.0426 14.3744 23.0426 16.9879C23.0426 17.6268 23.028 18.1204 22.999 18.4689L21.9971 30.9702H14.2437L15.2455 18.7302C15.3327 17.5106 15.1294 16.5813 14.6357 15.9425C14.1711 15.2746 13.4306 14.9406 12.4142 14.9406C11.2817 14.9406 10.396 15.3181 9.75715 16.0732C9.14733 16.7991 8.79886 17.7865 8.71174 19.0352L7.75345 30.9702H0L2.35217 0.261351H10.1056L9.19089 11.5866C9.97494 10.7735 10.9332 10.1492 12.0658 9.71359C13.1983 9.24897 14.447 9.01665 15.8118 9.01665Z" fill="#333333"/>
<path d="M38.8312 31.3187C36.45 31.3187 34.3737 30.8831 32.6023 30.0119C30.8309 29.1408 29.4661 27.9066 28.5078 26.3095C27.5495 24.6833 27.0704 22.8102 27.0704 20.6904C27.0704 18.2801 27.564 16.2038 28.5514 14.4615C29.5387 12.6901 30.9181 11.3398 32.6894 10.4105C34.4899 9.48128 36.5807 9.01665 38.9619 9.01665C41.3431 9.01665 43.4194 9.45224 45.1908 10.3234C46.9622 11.1946 48.327 12.4288 49.2853 14.0259C50.2436 15.6231 50.7228 17.4816 50.7228 19.6014C50.7228 22.0407 50.2291 24.146 49.2418 25.9174C48.2544 27.6598 46.8605 28.9956 45.0601 29.9248C43.2887 30.8541 41.2124 31.3187 38.8312 31.3187ZM38.7005 25.6125C40.2396 25.6125 41.3431 25.0317 42.011 23.8702C42.708 22.7086 43.0564 21.2276 43.0564 19.4272C43.0564 17.83 42.7225 16.6539 42.0546 15.8989C41.4157 15.1149 40.4284 14.7228 39.0926 14.7228C37.5535 14.7228 36.4355 15.3036 35.7386 16.4652C35.0707 17.5977 34.7367 19.0497 34.7367 20.8211C34.7367 22.4473 35.0561 23.6524 35.695 24.4364C36.3629 25.2205 37.3647 25.6125 38.7005 25.6125Z" fill="#333333"/>
<path d="M91.6621 9.53936L80.9903 30.9702H74.6307L71.146 20.4726L66.3545 30.9702H59.9514L52.6771 9.53936H60.3434L64.1766 21.6922L69.665 9.53936H74.6743L78.3767 21.91L83.9958 9.53936H91.6621Z" fill="#333333"/>
<path d="M104.927 9.53936H110.067L109.631 15.2455H104.492L103.228 30.9702H95.4749L96.7381 15.2455H92.7307L93.1663 9.53936H97.1737L97.2172 9.10377C97.4496 6.31601 98.524 4.18163 100.441 2.70064C102.357 1.21964 105.159 0.377508 108.847 0.174235L111.548 0L111.679 5.61907L108.543 5.74975C107.41 5.77879 106.553 6.0111 105.973 6.44669C105.421 6.85324 105.101 7.56469 105.014 8.58107L104.927 9.53936Z" fill="#333333"/>
<path d="M122.903 9.01665C125.981 9.01665 128.275 9.71359 129.785 11.1075C131.324 12.4723 132.093 14.5922 132.093 17.467C132.093 17.8155 132.064 18.3382 132.006 19.0352L131.092 30.9702H123.817L124.035 28.2696C123.512 29.2279 122.772 29.9829 121.814 30.5347C120.855 31.0574 119.752 31.3187 118.503 31.3187C117.08 31.3187 115.803 31.0428 114.67 30.4911C113.537 29.9103 112.637 29.1408 111.969 28.1825C111.33 27.2242 111.011 26.1497 111.011 24.9591C111.011 23.3039 111.418 21.9826 112.231 20.9953C113.044 19.9789 114.336 19.2384 116.107 18.7738C117.879 18.3092 120.231 18.0769 123.164 18.0769H124.732L124.776 17.772C124.834 16.6975 124.587 15.9134 124.035 15.4198C123.512 14.9261 122.612 14.6793 121.334 14.6793C120.318 14.6793 119.186 14.8826 117.937 15.2891C116.688 15.6666 115.527 16.1603 114.452 16.7701L112.884 11.6737C114.075 10.8897 115.599 10.2508 117.458 9.75715C119.316 9.26348 121.131 9.01665 122.903 9.01665ZM120.768 26.1352C121.756 26.1352 122.583 25.7577 123.251 25.0027C123.948 24.2477 124.34 23.2894 124.427 22.1278L124.471 21.6487H123.295C121.581 21.6487 120.347 21.8374 119.592 22.2149C118.837 22.5925 118.46 23.2168 118.46 24.088C118.46 24.6978 118.663 25.1915 119.069 25.569C119.505 25.9465 120.071 26.1352 120.768 26.1352Z" fill="#333333"/>
<path d="M168.644 22.3021L168.6 22.9119C168.6 24.7994 169.631 25.7432 171.693 25.7432C172.187 25.7432 172.855 25.6996 173.697 25.6125L172.869 31.1009C171.969 31.2461 171.098 31.3187 170.256 31.3187C163.983 31.3187 160.847 28.7197 160.847 23.5217C160.847 22.97 160.861 22.5489 160.891 22.2585L161.457 15.2455H157.449L157.885 9.53936H161.892L162.372 3.31046H170.125L169.646 9.53936H174.786L174.35 15.2455H169.21L168.644 22.3021Z" fill="#333333"/>
<path d="M150.434 8.22164L147.436 15.7281H155.058C155.934 15.7281 156.387 16.7746 155.787 17.4129L142.83 31.1992C142.027 32.0539 140.662 31.066 141.223 30.036L144.952 23.1895H136.082C135.207 23.1895 134.754 22.1449 135.352 21.5061L148.776 7.16728C149.531 6.36017 150.844 7.19492 150.434 8.22164Z" fill="url(#paint0_linear)"/>
<defs>
<linearGradient id="paint0_linear" x1="145.573" y1="3.29233" x2="145.573" y2="36.8688" gradientUnits="userSpaceOnUse">
<stop stop-color="#FBC02D"/>
<stop offset="1" stop-color="#FFFD6A"/>
</linearGradient>
</defs>
</svg>
